<svg width="93" height="24" viewBox="0 0 93 24" fill="none" xmlns="http://www.w3.org/2000/svg">
<path d="M0.529053 17H7.63305L7.56105 16.856L6.62505 16.784C6.07305 16.736 5.23305 16.616 5.23305 16.448V9.008C5.78505 9.224 6.33705 9.44 6.86505 9.56L11.2571 16.688L11.4251 17H15.9611L15.8651 16.856L15.5531 16.832C14.2571 16.736 13.7051 16.232 12.6731 14.696L9.31305 9.632C11.4971 9.224 13.0091 7.712 13.0091 5.984C13.0091 3.344 10.9691 2 7.00905 2H0.553053L0.625053 2.144L1.56105 2.216C2.80905 2.312 2.95305 2.384 2.95305 2.552V16.376C2.95305 16.52 2.28105 16.712 1.80105 16.76L0.601053 16.856L0.529053 17ZM7.17705 9.176C6.57705 9.176 5.97705 9.032 5.23305 8.792V2.288L6.31305 2.24C9.19305 2.12 10.5851 3.56 10.5851 5.84C10.5851 8 9.31305 9.176 7.17705 9.176ZM19.9128 17.312C21.8808 17.312 23.2728 16.136 24.4248 14.096L24.2568 14C23.3448 15.512 22.3368 15.896 20.9688 15.896C18.8808 15.896 17.2728 14.168 17.2728 11.408C17.2728 11.072 17.2968 10.448 17.3448 10.112L24.1368 10.136C24.1608 9.968 24.1848 9.92 24.1848 9.8C24.1848 7.832 22.7448 6.512 20.2968 6.512C17.2008 6.512 15.0888 9.056 15.0888 12.152C15.0888 15.08 17.1048 17.312 19.9128 17.312ZM17.3928 9.896C17.6808 8.288 18.7848 6.752 20.1048 6.752C21.5208 6.752 22.0008 8.312 22.0008 9.848L17.3928 9.896ZM32.6293 17.24C33.6853 17.24 34.5013 16.184 34.9093 15.632L34.7893 15.56C34.4773 15.848 34.1653 16.16 33.7813 16.16C33.2053 16.16 32.8933 15.728 32.9413 14.888L33.1813 10.304C33.3493 7.28 32.3893 6.512 30.1093 6.512C28.1893 6.512 25.2613 7.928 25.2613 9.2C25.2613 9.752 25.7413 10.184 26.4133 10.184C27.1093 10.184 27.5653 9.68 27.5653 9.152C27.5653 8.504 26.9413 8 26.9413 7.832C26.9413 7.592 27.8773 7.112 28.7413 7.112C30.2053 7.112 31.1893 8.024 31.1172 10.4L31.0933 11.144C26.5093 12.176 25.4293 13.424 25.4293 14.936C25.4293 16.184 26.5093 17.216 27.9013 17.216C29.1013 17.216 30.1093 16.328 30.9492 15.44V15.464C31.0693 16.616 31.6213 17.24 32.6293 17.24ZM29.0053 16.064C28.2373 16.064 27.4453 15.32 27.4453 14.264C27.4453 13.088 28.0213 12.056 31.0933 11.384L30.9492 15.176C30.2533 15.896 29.6773 16.064 29.0053 16.064ZM34.9353 17H40.0233L39.9513 16.856L39.6153 16.832C38.5593 16.736 38.4153 16.712 38.4153 16.52V0.848L34.9113 1.76L34.8873 1.856L35.4153 2C36.2313 2.216 36.3993 2.408 36.3993 3.872V16.472C36.3993 16.76 36.1353 16.784 35.3913 16.832L34.9833 16.856L34.9353 17ZM45.8208 17.336C49.1328 17.336 51.2448 14.84 51.2448 12.632C51.2448 10.136 49.5888 8.912 46.7328 7.928C44.8128 7.256 43.3728 6.44 43.3728 4.64C43.3728 3.08 44.6208 1.904 46.2288 1.904C47.3328 1.904 48.1248 2.312 48.7968 2.84L50.3328 5.816H50.4528L50.4048 1.904L49.5408 2.216C48.5808 1.928 47.5008 1.664 46.2288 1.664C43.2048 1.664 41.5248 3.8 41.5248 5.768C41.5248 8.12 43.3008 9.272 45.7488 10.112C47.9328 10.856 49.1808 11.768 49.1808 13.64C49.1808 15.632 47.8128 17.096 45.8208 17.096C44.0928 17.096 42.6768 16.304 41.7888 14.312L41.1648 12.92H41.0208L41.1168 16.496C42.5088 16.928 44.4528 17.336 45.8208 17.336ZM52.2322 17H57.3202L57.2482 16.856L56.9122 16.832C55.8562 16.736 55.7122 16.712 55.7122 16.52V0.848L52.2082 1.76L52.1842 1.856L52.7122 2C53.5282 2.216 53.6962 2.408 53.6962 3.872V16.472C53.6962 16.76 53.4322 16.784 52.6882 16.832L52.2802 16.856L52.2322 17ZM62.7097 17.312C64.6777 17.312 66.0697 16.136 67.2217 14.096L67.0537 14C66.1417 15.512 65.1337 15.896 63.7657 15.896C61.6777 15.896 60.0697 14.168 60.0697 11.408C60.0697 11.072 60.0937 10.448 60.1417 10.112L66.9337 10.136C66.9577 9.968 66.9817 9.92 66.9817 9.8C66.9817 7.832 65.5417 6.512 63.0937 6.512C59.9977 6.512 57.8857 9.056 57.8857 12.152C57.8857 15.08 59.9017 17.312 62.7097 17.312ZM60.1897 9.896C60.4777 8.288 61.5817 6.752 62.9017 6.752C64.3177 6.752 64.7977 8.312 64.7977 9.848L60.1897 9.896ZM72.8581 17.312C74.8261 17.312 76.2181 16.136 77.3701 14.096L77.2021 14C76.2901 15.512 75.2821 15.896 73.9141 15.896C71.8261 15.896 70.2181 14.168 70.2181 11.408C70.2181 11.072 70.2421 10.448 70.2901 10.112L77.0821 10.136C77.1061 9.968 77.1301 9.92 77.1301 9.8C77.1301 7.832 75.6901 6.512 73.2421 6.512C70.1461 6.512 68.0341 9.056 68.0341 12.152C68.0341 15.08 70.0501 17.312 72.8581 17.312ZM70.3381 9.896C70.6261 8.288 71.7301 6.752 73.0501 6.752C74.4661 6.752 74.9461 8.312 74.9461 9.848L70.3381 9.896ZM77.6546 23.072H83.2706L83.1986 22.928L82.3826 22.904C81.3026 22.88 81.1826 22.784 81.1826 22.616V16.808H81.2066C81.8546 17.096 82.6706 17.312 83.7746 17.312C86.1986 17.312 89.1986 15.536 89.1986 11.624C89.1986 8.696 87.3506 6.656 84.9746 6.656C83.4386 6.656 82.2626 7.544 81.2306 8.768L81.1826 8.72L81.2066 6.584L77.6546 7.52L77.6306 7.616L78.1826 7.736C78.9746 7.904 79.1666 8.144 79.1666 9.608V22.568C79.1666 22.832 78.8786 22.856 78.1586 22.904L77.7266 22.928L77.6546 23.072ZM84.1826 17.024C82.9106 17.024 81.7106 15.896 81.1826 14.528V9.176C81.7826 8.48 82.6706 7.952 83.7026 7.952C85.7186 7.952 86.9666 9.92 86.9666 12.248C86.9666 14.84 85.9826 17.024 84.1826 17.024ZM91.3297 17.288C92.1697 17.288 92.7697 16.616 92.7697 15.848C92.7697 15.128 92.1697 14.456 91.3297 14.456C90.4897 14.456 89.8657 15.128 89.8657 15.848C89.8657 16.616 90.4897 17.288 91.3297 17.288Z" fill="#203B3E"/>
</svg>
